<svg xmlns="http://www.w3.org/2000/svg" width="240" height="235"><path d="m 64.346717,204.94796 98.641393,-7.07107 36.76956,18.38478 -60.10408,15.55635 -77.428193,-5.3033 z" fill="#529095"/><path d="m 103.7723,820.83676 -7.866378,44.00256 88.005128,49.4107 -20.89508,100.78798 37.36531,18.4368 35.89036,-71.53485 -4.42484,-70.79742 -50.63982,-52.11477 z" fill="#66b8be" transform="translate(0 -817.362)"/><path d="m 4.2309027,919.37336 19.8943033,11.34689 40.806846,91.93835 -3.687366,21.3867 L 25.845977,981.36007 3.4759594,918.18321" fill="#11676b" transform="translate(0 -817.362)"/><path d="M 103.8321,820.98894 50.468108,855.57993 4.0570787,918.50425 23.6992,931.01958 94.967072,863.92348 z" fill="#0098a1" transform="translate(0 -817.362)"/><path d="m 163.15829,1015.634 -98.402377,7.0777 -40.564275,-90.80324 70.382385,-67.62194 89.631507,50.60155 z" fill="#b2e5e8" stroke="#4c4c4c" stroke-width="4" stroke-linecap="round" stroke-linejoin="round" transform="translate(0 -817.362)"/><g fill="none" stroke="#4c4c4c"><path transform="matrix(.9833 0 0 .9833 2.493 2)" d="m 164.22555,61.051732 17.14734,-41.18897" opacity=".615" stroke-width="1.6"/><path transform="matrix(.9833 0 0 .9833 2.493 2)" d="m 196.35472,129.72948 41.76349,16.35184" opacity=".615" stroke-width="1.6"/><path transform="matrix(.9833 0 0 .9833 2.493 2)" d="m 140.13973,178.74082 -1.5468,54.49141" opacity=".615" stroke-width="1.6"/><path transform="matrix(.9833 0 0 .9833 2.493 2)" d="M 78.002716,141.50722 24.130019,164.73126" opacity=".615" stroke-width="1.6"/><path transform="matrix(.9833 0 0 .9833 2.493 2)" d="M 90.863221,69.890566 48.613591,37.186878" opacity=".615" stroke-width="1.6"/><path d="m 164.23382,878.59551 -73.395977,8.74542 -12.708061,71.61896 62.063058,37.06261 56.05012,-48.98362 z" opacity=".615" stroke-width="1.388" stroke-linecap="round" stroke-linejoin="round" transform="matrix(.9833 0 0 .9833 2.493 -801.71)"/></g><g stroke-width="4.068" fill="none" stroke="#4c4c4c"><path transform="matrix(.9833 0 0 .9833 2.493 2)" d="M 94.398755,45.495382 103.23759,1.4779853"/><path transform="matrix(.9833 0 0 .9833 2.493 2)" d="M 184.37809,96.583847 233.16846,73.249324"/><path transform="matrix(.9833 0 0 .9833 2.493 2)" d="m 163.51844,199.11433 37.47666,18.208"/><path transform="matrix(.9833 0 0 .9833 2.493 2)" d="m 63.10928,206.36218 -3.535534,22.80419"/><path transform="matrix(.9833 0 0 .9833 2.493 2)" d="M 21.92031,114.08474 1.0606602,100.64971"/><path transform="matrix(.9833 0 0 .9833 2.493 2)" d="M 0.98248841,102.52135 48.790368,36.833324 104.06389,1.5276387"/><path d="m 102.45818,819.15941 79.08219,18.53609 51.94722,53.57144" transform="matrix(.9833 0 0 .9833 2.493 -801.71)"/><path d="m 232.90956,889.93326 4.63587,73.19635 -36.92778,72.44649" transform="matrix(.9833 0 0 .9833 2.493 -801.71)"/><path d="m 201.95855,1034.5277 -63.11648,16.5432 -80.286597,-5.3302" transform="matrix(.9833 0 0 .9833 2.493 -801.71)"/><path d="M 60.221803,1046.8054 23.68936,981.93865 1.2777631,917.98345" transform="matrix(.9833 0 0 .9833 2.493 -801.71)"/></g></svg>